<?xml version="1.0" encoding="UTF-8" standalone="no"?>
<!-- Created with Inkscape (http://www.inkscape.org/) -->

<svg
   xmlns:dc="http://purl.org/dc/elements/1.1/"
   xmlns:cc="http://creativecommons.org/ns#"
   xmlns:rdf="http://www.w3.org/1999/02/22-rdf-syntax-ns#"
   xmlns:svg="http://www.w3.org/2000/svg"
   xmlns="http://www.w3.org/2000/svg"
   xmlns:xlink="http://www.w3.org/1999/xlink"
   xmlns:sodipodi="http://sodipodi.sourceforge.net/DTD/sodipodi-0.dtd"
   xmlns:inkscape="http://www.inkscape.org/namespaces/inkscape"
   width="128.07085"
   height="86.625648"
   id="svg3879"
   version="1.1"
   inkscape:version="0.48.4 r9939"
   sodipodi:docname="New document 6">
  <defs
     id="defs3881">
    <clipPath
       clipPathUnits="userSpaceOnUse"
       id="clipPath3953-0-9-1-5-0-21-55">
      <path
         style="fill:#4f4371;fill-opacity:1;stroke:none"
         d="m 1375.3258,-1364.6093 -150.0676,-234.8117 287.7767,12.3585 1.7656,213.6257 z"
         id="path3955-1-6-8-1-2-5-7"
         inkscape:connector-curvature="0" />
    </clipPath>
    <linearGradient
       inkscape:collect="always"
       xlink:href="#linearGradient6027-36-63"
       id="linearGradient10298-4"
       gradientUnits="userSpaceOnUse"
       x1="1345.6873"
       y1="-946.31982"
       x2="1792.3591"
       y2="-946.31982" />
    <linearGradient
       id="linearGradient6027-36-63">
      <stop
         style="stop-color:#4f4371;stop-opacity:1;"
         offset="0"
         id="stop6029-1-7" />
      <stop
         style="stop-color:#6e5d9d;stop-opacity:1;"
         offset="1"
         id="stop6031-6-2" />
    </linearGradient>
    <clipPath
       clipPathUnits="userSpaceOnUse"
       id="clipPath3924-0-1-2-11-3">
      <path
         style="fill:#ffffff;stroke:none"
         d="m 1354.5147,-1165.4256 144.7711,218.92217 -153.5986,231.28072 446.6719,-5.2965 -28.2481,-35.31004 -293.0732,-434.31345 z"
         id="path3926-1-2-6-1-1"
         inkscape:connector-curvature="0" />
    </clipPath>
    <linearGradient
       inkscape:collect="always"
       xlink:href="#linearGradient6027-36-63"
       id="linearGradient10296-8"
       gradientUnits="userSpaceOnUse"
       x1="1345.6873"
       y1="-946.31982"
       x2="1792.3591"
       y2="-946.31982" />
    <linearGradient
       id="linearGradient3863">
      <stop
         style="stop-color:#4f4371;stop-opacity:1;"
         offset="0"
         id="stop3865" />
      <stop
         style="stop-color:#6e5d9d;stop-opacity:1;"
         offset="1"
         id="stop3867" />
    </linearGradient>
    <clipPath
       clipPathUnits="userSpaceOnUse"
       id="clipPath3854-8-0-29-50-32-8">
      <path
         style="fill:#ffffff;fill-opacity:1;stroke:none"
         d="m 575,-882.63744 -148,-230.99996 -136,5 7,27 130,200.99996 -140,226 145,0 143,-219 z"
         id="path3856-8-7-4-6-02-5"
         inkscape:connector-curvature="0" />
    </clipPath>
    <linearGradient
       y2="-946.31982"
       x2="1792.3591"
       y1="-946.31982"
       x1="1345.6873"
       gradientUnits="userSpaceOnUse"
       id="linearGradient3877"
       xlink:href="#linearGradient6027-36-63"
       inkscape:collect="always" />
  </defs>
  <sodipodi:namedview
     id="base"
     pagecolor="#ffffff"
     bordercolor="#666666"
     borderopacity="1.0"
     inkscape:pageopacity="0.0"
     inkscape:pageshadow="2"
     inkscape:zoom="2.1410156"
     inkscape:cx="467.99364"
     inkscape:cy="-198.47516"
     inkscape:document-units="px"
     inkscape:current-layer="layer1"
     showgrid="false"
     fit-margin-top="0"
     fit-margin-left="0"
     fit-margin-right="0"
     fit-margin-bottom="0"
     inkscape:window-width="2880"
     inkscape:window-height="1760"
     inkscape:window-x="0"
     inkscape:window-y="40"
     inkscape:window-maximized="0" />
  <metadata
     id="metadata3884">
    <rdf:RDF>
      <cc:Work
         rdf:about="">
        <dc:format>image/svg+xml</dc:format>
        <dc:type
           rdf:resource="http://purl.org/dc/dcmitype/StillImage" />
        <dc:title></dc:title>
      </cc:Work>
    </rdf:RDF>
  </metadata>
  <g
     inkscape:label="Layer 1"
     inkscape:groupmode="layer"
     id="layer1"
     transform="translate(92.993643,-247.26136)">
    <g
       id="text2990-9-70-0"
       style="font-size:417.63537598px;font-style:normal;font-variant:normal;font-weight:normal;font-stretch:normal;line-height:125%;letter-spacing:0px;word-spacing:0px;fill:url(#linearGradient10298-4);fill-opacity:1;stroke:none;display:inline;font-family:Haskell;-inkscape-font-specification:Haskell"
       clip-path="url(#clipPath3924-0-1-2-11-3)"
       transform="matrix(0.21673864,0,0,0.20726175,-360.92325,486.743)">
      <path
         style="fill:url(#linearGradient3877);fill-opacity:1;stroke:none"
         inkscape:connector-curvature="0"
         id="path4234-0-9-6"
         d="m 1238.7188,-737.50216 138.6679,-208.81769 -138.6679,-208.81765 104.4088,0 138.668,208.81765 -138.668,208.81769 -104.4088,0 m 0,0 0,0 m 138.6679,0 139.4837,-208.81769 -139.4837,-208.81765 104.4089,0 278.1517,417.63534 -104.4089,0 -86.4635,-130.51105 -87.2793,130.51105 -104.4089,0 m 0,0 0,0 m 336.066,-121.53842 -46.4946,-70.14969 162.3232,0 0,70.14969 -115.8286,0 m 0,0 0,0 m -69.334,-104.40884 -46.4945,-70.14968 231.6571,0 0,70.14968 -185.1626,0 m 0,0 0,0" />
    </g>
    <g
       id="text2990-2-1-9-5"
       style="font-size:417.63537598px;font-style:normal;font-variant:normal;font-weight:normal;font-stretch:normal;line-height:125%;letter-spacing:0px;word-spacing:0px;fill:#453a62;fill-opacity:1;stroke:none;display:inline;font-family:Haskell;-inkscape-font-specification:Haskell"
       clip-path="url(#clipPath3854-8-0-29-50-32-8)"
       transform="matrix(0.21673864,0,0,0.20726175,-162.28905,473.06373)">
      <path
         style="stroke:none"
         inkscape:connector-curvature="0"
         id="path4237-4-0-9"
         d="m 319.71875,-671.81973 138.668,-208.81768 -138.668,-208.81769 104.40884,0 138.668,208.81769 -138.668,208.81768 -104.40884,0 m 0,0 0,0 m 138.668,0 139.48369,-208.81768 -139.48369,-208.81769 104.40884,0 278.15169,417.63537 -104.40885,0 -86.46357,-130.51105 -87.27927,130.51105 -104.40884,0 m 0,0 0,0 m 336.06596,-121.53841 -46.49456,-70.1497 162.32312,0 0,70.1497 -115.82856,0 m 0,0 0,0 m -69.334,-104.40885 -46.49456,-70.14969 231.65712,0 0,70.14969 -185.16256,0 m 0,0 0,0" />
    </g>
    <g
       id="text2990-27-8-3-4"
       style="font-size:417.63537598px;font-style:normal;font-variant:normal;font-weight:normal;font-stretch:normal;line-height:125%;letter-spacing:0px;word-spacing:0px;fill:#8f4e8b;fill-opacity:1;stroke:none;display:inline;font-family:Haskell;-inkscape-font-specification:Haskell"
       clip-path="url(#clipPath3953-0-9-1-5-0-21-55)"
       transform="matrix(0.21673864,0,0,0.20726175,-287.21205,598.2595)">
      <path
         style="stroke:none"
         inkscape:connector-curvature="0"
         id="path4240-0-9-2"
         d="m 896.43237,-1273.5352 138.66803,-208.8177 -138.66803,-208.8177 104.40883,0 138.668,208.8177 -138.668,208.8177 -104.40883,0 m 0,0 0,0 m 138.66803,0 139.4837,-208.8177 -139.4837,-208.8177 104.4088,0 278.1517,417.6354 -104.4088,0 -86.4636,-130.5111 -87.2793,130.5111 -104.4088,0 m 0,0 0,0 m 336.0659,-121.5385 -46.4945,-70.1497 162.3231,0 0,70.1497 -115.8286,0 m 0,0 0,0 m -69.334,-104.4088 -46.4945,-70.1497 231.6571,0 0,70.1497 -185.1626,0 m 0,0 0,0" />
    </g>
  </g>
</svg>
